####
#
#	OBJ File Generated by LightWave3D
#	LightWave3D OBJ Export v2.3
#
####
o cone.obj
g default
v -7.65512e-012 -0.5 -0.5
v -0.12941 -0.5 -0.482963
v -0.25 -0.5 -0.433013
v -0.353553 -0.5 -0.353553
v -0.433013 -0.5 -0.25
v -0.482963 -0.5 -0.12941
v -0.5 -0.5 -0
v -0.482963 -0.5 0.12941
v -0.433013 -0.5 0.25
v -0.353553 -0.5 0.353553
v -0.25 -0.5 0.433013
v -0.12941 -0.5 0.482963
v -7.65512e-012 -0.5 0.5
v 0.12941 -0.5 0.482963
v 0.25 -0.5 0.433013
v 0.353553 -0.5 0.353553
v 0.433013 -0.5 0.25
v 0.482963 -0.5 0.12941
v 0.5 -0.5 -0
v 0.482963 -0.5 -0.12941
v 0.433013 -0.5 -0.25
v 0.353553 -0.5 -0.353553
v 0.25 -0.5 -0.433013
v 0.12941 -0.5 -0.482963
v 7.65512e-012 0.5 -0
vn 0 -1 -0
vn 0 -1 -0
vn 0 -1 -0
vn 0 -1 -0
vn 0 -1 -0
vn 0 -1 -0
vn 0 -1 -0
vn 0 -1 -0
vn 0 -1 -0
vn 0 -1 -0
vn 0 -1 -0
vn 0 -1 -0
vn 0 -1 -0
vn 0 -1 -0
vn 0 -1 -0
vn 0 -1 -0
vn 0 -1 -0
vn 0 -1 -0
vn 0 -1 -0
vn 0 -1 -0
vn 0 -1 -0
vn 0 -1 -0
vn 0 -1 -0
vn 0 -1 -0
vn 0 -1 -0
vn 0 -1 -0
vn 0 -1 -0
vn 0 -1 -0
vn 0 -1 -0
vn 0 -1 -0
vn 0 -1 -0
vn 0 -1 -0
vn 0 -1 -0
vn 0 -1 -0
vn 0 -1 -0
vn 0 -1 -0
vn 0 -1 -0
vn 0 -1 -0
vn 0 -1 -0
vn 0 -1 -0
vn 0 -1 -0
vn 0 -1 -0
vn 0 -1 -0
vn 0 -1 -0
vn 0 -1 -0
vn 0 -1 -0
vn 0 -1 -0
vn 0 -1 -0
vn 0 -1 -0
vn 0 -1 -0
vn 0 -1 -0
vn 0 -1 -0
vn 0 -1 -0
vn 0 -1 -0
vn 0 -1 -0
vn 0 -1 -0
vn 0 -1 -0
vn 0 -1 -0
vn 0 -1 -0
vn 0 -1 -0
vn 0 -1 -0
vn 0 -1 -0
vn 0 -1 -0
vn 0 -1 -0
vn 0 -1 -0
vn 0 -1 -0
vn -0.116946 0.444145 -0.88829
vn -0.116946 0.444145 -0.88829
vn -0.116946 0.444145 -0.88829
vn -0.342867 0.444145 -0.827754
vn -0.342867 0.444145 -0.827754
vn -0.342867 0.444145 -0.827754
vn -0.545423 0.444145 -0.710809
vn -0.545423 0.444145 -0.710809
vn -0.545423 0.444145 -0.710809
vn -0.710809 0.444145 -0.545423
vn -0.710809 0.444145 -0.545423
vn -0.710809 0.444145 -0.545423
vn -0.827754 0.444145 -0.342867
vn -0.827754 0.444145 -0.342867
vn -0.827754 0.444145 -0.342867
vn -0.88829 0.444145 -0.116946
vn -0.88829 0.444145 -0.116946
vn -0.88829 0.444145 -0.116946
vn -0.88829 0.444145 0.116946
vn -0.88829 0.444145 0.116946
vn -0.88829 0.444145 0.116946
vn -0.827754 0.444145 0.342867
vn -0.827754 0.444145 0.342867
vn -0.827754 0.444145 0.342867
vn -0.710809 0.444145 0.545423
vn -0.710809 0.444145 0.545423
vn -0.710809 0.444145 0.545423
vn -0.545423 0.444145 0.710809
vn -0.545423 0.444145 0.710809
vn -0.545423 0.444145 0.710809
vn -0.342867 0.444145 0.827754
vn -0.342867 0.444145 0.827754
vn -0.342867 0.444145 0.827754
vn -0.116946 0.444145 0.88829
vn -0.116946 0.444145 0.88829
vn -0.116946 0.444145 0.88829
vn 0.116946 0.444145 0.88829
vn 0.116946 0.444145 0.88829
vn 0.116946 0.444145 0.88829
vn 0.342867 0.444145 0.827754
vn 0.342867 0.444145 0.827754
vn 0.342867 0.444145 0.827754
vn 0.545423 0.444145 0.710809
vn 0.545423 0.444145 0.710809
vn 0.545423 0.444145 0.710809
vn 0.710809 0.444145 0.545423
vn 0.710809 0.444145 0.545423
vn 0.710809 0.444145 0.545423
vn 0.827754 0.444145 0.342867
vn 0.827754 0.444145 0.342867
vn 0.827754 0.444145 0.342867
vn 0.88829 0.444145 0.116946
vn 0.88829 0.444145 0.116946
vn 0.88829 0.444145 0.116946
vn 0.88829 0.444145 -0.116946
vn 0.88829 0.444145 -0.116946
vn 0.88829 0.444145 -0.116946
vn 0.827754 0.444145 -0.342867
vn 0.827754 0.444145 -0.342867
vn 0.827754 0.444145 -0.342867
vn 0.710809 0.444145 -0.545423
vn 0.710809 0.444145 -0.545423
vn 0.710809 0.444145 -0.545423
vn 0.545423 0.444145 -0.710809
vn 0.545423 0.444145 -0.710809
vn 0.545423 0.444145 -0.710809
vn 0.342867 0.444145 -0.827754
vn 0.342867 0.444145 -0.827754
vn 0.342867 0.444145 -0.827754
vn 0.116946 0.444145 -0.88829
vn 0.116946 0.444145 -0.88829
vn 0.116946 0.444145 -0.88829
g Default
usemtl Default
s off
f 2//1 1//2 24//3
f 2//4 24//5 3//6
f 3//7 24//8 23//9
f 3//10 23//11 4//12
f 4//13 23//14 22//15
f 4//16 22//17 5//18
f 5//19 22//20 6//21
f 22//22 21//23 6//24
f 6//25 21//26 20//27
f 6//28 20//29 7//30
f 7//31 20//32 8//33
f 8//34 20//35 9//36
f 9//37 20//38 10//39
f 20//40 19//41 10//42
f 19//43 18//44 10//45
f 18//46 17//47 10//48
f 10//49 17//50 16//51
f 10//52 16//53 11//54
f 11//55 16//56 12//57
f 16//58 15//59 12//60
f 12//61 14//62 13//63
f 15//64 14//65 12//66
f 25//67 1//68 2//69
f 25//70 2//71 3//72
f 25//73 3//74 4//75
f 25//76 4//77 5//78
f 25//79 5//80 6//81
f 25//82 6//83 7//84
f 25//85 7//86 8//87
f 25//88 8//89 9//90
f 25//91 9//92 10//93
f 25//94 10//95 11//96
f 25//97 11//98 12//99
f 25//100 12//101 13//102
f 14//103 25//104 13//105
f 15//106 25//107 14//108
f 16//109 25//110 15//111
f 17//112 25//113 16//114
f 18//115 25//116 17//117
f 19//118 25//119 18//120
f 20//121 25//122 19//123
f 21//124 25//125 20//126
f 22//127 25//128 21//129
f 23//130 25//131 22//132
f 24//133 25//134 23//135
f 1//136 25//137 24//138
