####
#
#	OBJ File Generated by LightWave3D
#	LightWave3D OBJ Export v2.3
#
####
o Cubeoctahedron.obj
g default
v 0 0.707107 -0.707107
v 0 -0.707107 -0.707107
v 0 -0.707107 0.707107
v 0 0.707107 0.707107
v 0.707107 0 -0.707107
v -0.707107 0 -0.707107
v -0.707107 0 0.707107
v 0.707107 0 0.707107
v 0.707107 0.707107 -0
v -0.707107 0.707107 -0
v -0.707107 -0.707107 -0
v 0.707107 -0.707107 -0
vn 0.57735 0.57735 -0.57735
vn 0.57735 0.57735 -0.57735
vn 0.57735 0.57735 -0.57735
vn -0.57735 0.57735 -0.57735
vn -0.57735 0.57735 -0.57735
vn -0.57735 0.57735 -0.57735
vn 0.57735 -0.57735 -0.57735
vn 0.57735 -0.57735 -0.57735
vn 0.57735 -0.57735 -0.57735
vn -0.57735 -0.57735 -0.57735
vn -0.57735 -0.57735 -0.57735
vn -0.57735 -0.57735 -0.57735
vn -0.57735 -0.57735 0.57735
vn -0.57735 -0.57735 0.57735
vn -0.57735 -0.57735 0.57735
vn 0.57735 -0.57735 0.57735
vn 0.57735 -0.57735 0.57735
vn 0.57735 -0.57735 0.57735
vn -0.57735 0.57735 0.57735
vn -0.57735 0.57735 0.57735
vn -0.57735 0.57735 0.57735
vn 0.57735 0.57735 0.57735
vn 0.57735 0.57735 0.57735
vn 0.57735 0.57735 0.57735
vn 0 1 -0
vn 0 1 -0
vn 0 1 -0
vn 0 1 -0
vn 0 0 -1
vn 0 0 -1
vn 0 0 -1
vn 0 0 -1
vn 0 -1 0
vn 0 -1 0
vn 0 -1 0
vn 0 -1 0
vn 0 0 1
vn 0 0 1
vn 0 0 1
vn 0 0 1
vn 1 0 -0
vn 1 0 -0
vn 1 0 -0
vn 1 0 -0
vn -1 0 0
vn -1 0 0
vn -1 0 0
vn -1 0 0
g Cubeoctahedron
usemtl Cubeoctahedron
s off
f 9//1 5//2 1//3
f 6//4 10//5 1//6
f 5//7 12//8 2//9
f 11//10 6//11 2//12
f 7//13 11//14 3//15
f 12//16 8//17 3//18
f 10//19 7//20 4//21
f 8//22 9//23 4//24
f 10//25 4//26 9//27 1//28
f 5//29 2//30 6//31 1//32
f 12//33 3//34 11//35 2//36
f 8//37 4//38 7//39 3//40
f 9//41 8//42 12//43 5//44
f 11//45 7//46 10//47 6//48
