####
#
#	OBJ File Generated by LightWave3D
#	LightWave3D OBJ Export v2.3
#
####
o Icosahedron.obj
g default
v 0 0.850651 -0.525731
v 0 -0.850651 -0.525731
v 0 0.850651 0.525731
v 0 -0.850651 0.525731
v 0.525731 0 -0.850651
v -0.525731 0 -0.850651
v 0.525731 0 0.850651
v -0.525731 0 0.850651
v 0.850651 0.525731 -0
v -0.850651 0.525731 -0
v 0.850651 -0.525731 -0
v -0.850651 -0.525731 -0
vn 0 0.356822 -0.934172
vn 0 0.356822 -0.934172
vn 0 0.356822 -0.934172
vn 0.57735 0.57735 -0.57735
vn 0.57735 0.57735 -0.57735
vn 0.57735 0.57735 -0.57735
vn 0.934172 0 -0.356822
vn 0.934172 0 -0.356822
vn 0.934172 0 -0.356822
vn 0.57735 -0.57735 -0.57735
vn 0.57735 -0.57735 -0.57735
vn 0.57735 -0.57735 -0.57735
vn 0 -0.356822 -0.934172
vn 0 -0.356822 -0.934172
vn 0 -0.356822 -0.934172
vn -0.57735 -0.57735 -0.57735
vn -0.57735 -0.57735 -0.57735
vn -0.57735 -0.57735 -0.57735
vn -0.934172 0 -0.356822
vn -0.934172 0 -0.356822
vn -0.934172 0 -0.356822
vn -0.57735 0.57735 -0.57735
vn -0.57735 0.57735 -0.57735
vn -0.57735 0.57735 -0.57735
vn -0.356822 0.934172 -0
vn -0.356822 0.934172 -0
vn -0.356822 0.934172 -0
vn 0.356822 0.934172 -0
vn 0.356822 0.934172 -0
vn 0.356822 0.934172 -0
vn -0.356822 -0.934172 0
vn -0.356822 -0.934172 0
vn -0.356822 -0.934172 0
vn 0.356822 -0.934172 -0
vn 0.356822 -0.934172 -0
vn 0.356822 -0.934172 -0
vn 0 0.356822 0.934172
vn 0 0.356822 0.934172
vn 0 0.356822 0.934172
vn 0.57735 0.57735 0.57735
vn 0.57735 0.57735 0.57735
vn 0.57735 0.57735 0.57735
vn 0.934172 0 0.356822
vn 0.934172 0 0.356822
vn 0.934172 0 0.356822
vn 0.57735 -0.57735 0.57735
vn 0.57735 -0.57735 0.57735
vn 0.57735 -0.57735 0.57735
vn 0 -0.356822 0.934172
vn 0 -0.356822 0.934172
vn 0 -0.356822 0.934172
vn -0.57735 -0.57735 0.57735
vn -0.57735 -0.57735 0.57735
vn -0.57735 -0.57735 0.57735
vn -0.934172 0 0.356822
vn -0.934172 0 0.356822
vn -0.934172 0 0.356822
vn -0.57735 0.57735 0.57735
vn -0.57735 0.57735 0.57735
vn -0.57735 0.57735 0.57735
g Icosahedron
usemtl Icosahedron
s off
f 5//1 6//2 1//3
f 9//4 5//5 1//6
f 9//7 11//8 5//9
f 5//10 11//11 2//12
f 6//13 5//14 2//15
f 12//16 6//17 2//18
f 12//19 10//20 6//21
f 6//22 10//23 1//24
f 10//25 3//26 1//27
f 3//28 9//29 1//30
f 4//31 12//32 2//33
f 11//34 4//35 2//36
f 8//37 7//38 3//39
f 7//40 9//41 3//42
f 11//43 9//44 7//45
f 11//46 7//47 4//48
f 7//49 8//50 4//51
f 8//52 12//53 4//54
f 10//55 12//56 8//57
f 10//58 8//59 3//60
