####
#
#	OBJ File Generated by LightWave3D
#	LightWave3D OBJ Export v2.3
#
####
o icosidodecahedron.obj
g default
v 0.5 0 -0
v -0.5 0 -0
v 0 0.5 -0
v 0 -0.5 -0
v 0 0 -0.5
v 0 0 0.5
v 0.404509 0.154509 -0.25
v 0.404509 0.154509 0.25
v 0.404509 -0.154509 -0.25
v 0.404509 -0.154509 0.25
v -0.404509 0.154509 -0.25
v -0.404509 0.154509 0.25
v -0.404509 -0.154509 -0.25
v -0.404509 -0.154509 0.25
v 0.25 0.404509 -0.154509
v 0.25 0.404509 0.154509
v 0.25 -0.404509 -0.154509
v 0.25 -0.404509 0.154509
v -0.25 0.404509 -0.154509
v -0.25 0.404509 0.154509
v -0.25 -0.404509 -0.154509
v -0.25 -0.404509 0.154509
v 0.154509 0.25 -0.404509
v 0.154509 0.25 0.404509
v 0.154509 -0.25 -0.404509
v 0.154509 -0.25 0.404509
v -0.154509 0.25 -0.404509
v -0.154509 0.25 0.404509
v -0.154509 -0.25 -0.404509
v -0.154509 -0.25 0.404509
vn 0.850651 0.525731 -4.10194e-008
vn 0.850651 0.525731 -4.10194e-008
vn 0.850651 0.525731 -4.10194e-008
vn 0.850651 0.525731 -0
vn 0.850651 0.525731 -0
vn 0.850651 0.525731 -0
vn 0.850651 0.525731 4.10194e-008
vn 0.850651 0.525731 4.10194e-008
vn 0.850651 0.525731 4.10194e-008
vn 0.850651 -0.525731 -0
vn 0.850651 -0.525731 -0
vn 0.850651 -0.525731 -0
vn 0.850651 -0.525731 -0
vn 0.850651 -0.525731 -0
vn 0.850651 -0.525731 -0
vn 0.850651 -0.525731 -0
vn 0.850651 -0.525731 -0
vn 0.850651 -0.525731 -0
vn -0.850651 0.525731 4.10194e-008
vn -0.850651 0.525731 4.10194e-008
vn -0.850651 0.525731 4.10194e-008
vn -0.850651 0.525731 -0
vn -0.850651 0.525731 -0
vn -0.850651 0.525731 -0
vn -0.850651 0.525731 -4.10194e-008
vn -0.850651 0.525731 -4.10194e-008
vn -0.850651 0.525731 -4.10194e-008
vn -0.850651 -0.525731 -0
vn -0.850651 -0.525731 -0
vn -0.850651 -0.525731 -0
vn -0.850651 -0.525731 -0
vn -0.850651 -0.525731 -0
vn -0.850651 -0.525731 -0
vn -0.850651 -0.525731 -0
vn -0.850651 -0.525731 -0
vn -0.850651 -0.525731 -0
vn 0 0.850651 -0.525731
vn 0 0.850651 -0.525731
vn 0 0.850651 -0.525731
vn -0 0.850651 -0.525731
vn -0 0.850651 -0.525731
vn -0 0.850651 -0.525731
vn 0 0.850651 -0.525731
vn 0 0.850651 -0.525731
vn 0 0.850651 -0.525731
vn 0 0.850651 0.525731
vn 0 0.850651 0.525731
vn 0 0.850651 0.525731
vn 0 0.850651 0.525731
vn 0 0.850651 0.525731
vn 0 0.850651 0.525731
vn 0 0.850651 0.525731
vn 0 0.850651 0.525731
vn 0 0.850651 0.525731
vn -4.10194e-008 -0.850651 -0.525731
vn -4.10194e-008 -0.850651 -0.525731
vn -4.10194e-008 -0.850651 -0.525731
vn 0 -0.850651 -0.525731
vn 0 -0.850651 -0.525731
vn 0 -0.850651 -0.525731
vn 4.10194e-008 -0.850651 -0.525731
vn 4.10194e-008 -0.850651 -0.525731
vn 4.10194e-008 -0.850651 -0.525731
vn 4.10194e-008 -0.850651 0.525731
vn 4.10194e-008 -0.850651 0.525731
vn 4.10194e-008 -0.850651 0.525731
vn 0 -0.850651 0.525731
vn 0 -0.850651 0.525731
vn 0 -0.850651 0.525731
vn -4.10194e-008 -0.850651 0.525731
vn -4.10194e-008 -0.850651 0.525731
vn -4.10194e-008 -0.850651 0.525731
vn 0.525731 2.05097e-008 -0.850651
vn 0.525731 2.05097e-008 -0.850651
vn 0.525731 2.05097e-008 -0.850651
vn 0.525731 -0 -0.850651
vn 0.525731 -0 -0.850651
vn 0.525731 -0 -0.850651
vn 0.525731 -4.10194e-008 -0.850651
vn 0.525731 -4.10194e-008 -0.850651
vn 0.525731 -4.10194e-008 -0.850651
vn -0.525731 -4.10194e-008 -0.850651
vn -0.525731 -4.10194e-008 -0.850651
vn -0.525731 -4.10194e-008 -0.850651
vn -0.525731 0 -0.850651
vn -0.525731 0 -0.850651
vn -0.525731 0 -0.850651
vn -0.525731 2.05097e-008 -0.850651
vn -0.525731 2.05097e-008 -0.850651
vn -0.525731 2.05097e-008 -0.850651
vn 0.525731 -4.10194e-008 0.850651
vn 0.525731 -4.10194e-008 0.850651
vn 0.525731 -4.10194e-008 0.850651
vn 0.525731 0 0.850651
vn 0.525731 0 0.850651
vn 0.525731 0 0.850651
vn 0.525731 2.05097e-008 0.850651
vn 0.525731 2.05097e-008 0.850651
vn 0.525731 2.05097e-008 0.850651
vn -0.525731 2.05097e-008 0.850651
vn -0.525731 2.05097e-008 0.850651
vn -0.525731 2.05097e-008 0.850651
vn -0.525731 0 0.850651
vn -0.525731 0 0.850651
vn -0.525731 0 0.850651
vn -0.525731 -4.10194e-008 0.850651
vn -0.525731 -4.10194e-008 0.850651
vn -0.525731 -4.10194e-008 0.850651
vn 0.934172 -0 -0.356822
vn 0.934172 -0 -0.356822
vn 0.934172 -0 -0.356822
vn 0.934172 0 0.356822
vn 0.934172 0 0.356822
vn 0.934172 0 0.356822
vn -0.934172 0 -0.356822
vn -0.934172 0 -0.356822
vn -0.934172 0 -0.356822
vn -0.934172 0 0.356822
vn -0.934172 0 0.356822
vn -0.934172 0 0.356822
vn 0.356822 0.934172 0
vn 0.356822 0.934172 0
vn 0.356822 0.934172 0
vn -0.356822 0.934172 -0
vn -0.356822 0.934172 -0
vn -0.356822 0.934172 -0
vn 0.356822 -0.934172 -0
vn 0.356822 -0.934172 -0
vn 0.356822 -0.934172 -0
vn -0.356822 -0.934172 -0
vn -0.356822 -0.934172 -0
vn -0.356822 -0.934172 -0
vn 0 0.356822 -0.934172
vn 0 0.356822 -0.934172
vn 0 0.356822 -0.934172
vn 0 -0.356822 -0.934172
vn 0 -0.356822 -0.934172
vn 0 -0.356822 -0.934172
vn 0 0.356822 0.934172
vn 0 0.356822 0.934172
vn 0 0.356822 0.934172
vn -0 -0.356822 0.934172
vn -0 -0.356822 0.934172
vn -0 -0.356822 0.934172
vn 0.57735 0.57735 -0.57735
vn 0.57735 0.57735 -0.57735
vn 0.57735 0.57735 -0.57735
vn 0.57735 0.57735 0.57735
vn 0.57735 0.57735 0.57735
vn 0.57735 0.57735 0.57735
vn 0.57735 -0.57735 -0.57735
vn 0.57735 -0.57735 -0.57735
vn 0.57735 -0.57735 -0.57735
vn 0.57735 -0.57735 0.57735
vn 0.57735 -0.57735 0.57735
vn 0.57735 -0.57735 0.57735
vn -0.57735 0.57735 -0.57735
vn -0.57735 0.57735 -0.57735
vn -0.57735 0.57735 -0.57735
vn -0.57735 0.57735 0.57735
vn -0.57735 0.57735 0.57735
vn -0.57735 0.57735 0.57735
vn -0.57735 -0.57735 -0.57735
vn -0.57735 -0.57735 -0.57735
vn -0.57735 -0.57735 -0.57735
vn -0.57735 -0.57735 0.57735
vn -0.57735 -0.57735 0.57735
vn -0.57735 -0.57735 0.57735
g Icosidodecahedron
usemtl Icosidodecahedron
s off
f 16//1 8//2 1//3
f 15//4 16//5 1//6
f 7//7 15//8 1//9
f 9//10 1//11 17//12
f 17//13 1//14 18//15
f 1//16 10//17 18//18
f 19//19 11//20 2//21
f 20//22 19//23 2//24
f 12//25 20//26 2//27
f 14//28 2//29 22//30
f 2//31 21//32 22//33
f 2//34 13//35 21//36
f 19//37 3//38 27//39
f 3//40 23//41 27//42
f 3//43 15//44 23//45
f 16//46 3//47 24//48
f 3//49 28//50 24//51
f 3//52 20//53 28//54
f 25//55 17//56 4//57
f 29//58 25//59 4//60
f 21//61 29//62 4//63
f 30//64 22//65 4//66
f 26//67 30//68 4//69
f 18//70 26//71 4//72
f 5//73 9//74 25//75
f 5//76 7//77 9//78
f 23//79 7//80 5//81
f 11//82 27//83 5//84
f 11//85 5//86 13//87
f 13//88 5//89 29//90
f 8//91 24//92 6//93
f 8//94 6//95 10//96
f 10//97 6//98 26//99
f 6//100 14//101 30//102
f 6//103 12//104 14//105
f 28//106 12//107 6//108
f 7//109 1//110 9//111
f 1//112 8//113 10//114
f 2//115 11//116 13//117
f 12//118 2//119 14//120
f 15//121 3//122 16//123
f 3//124 19//125 20//126
f 17//127 18//128 4//129
f 22//130 21//131 4//132
f 27//133 23//134 5//135
f 5//136 25//137 29//138
f 24//139 28//140 6//141
f 6//142 30//143 26//144
f 23//145 15//146 7//147
f 16//148 24//149 8//150
f 25//151 9//152 17//153
f 10//154 26//155 18//156
f 19//157 27//158 11//159
f 28//160 20//161 12//162
f 13//163 29//164 21//165
f 30//166 14//167 22//168
