####
#
#	OBJ File Generated by LightWave3D
#	LightWave3D OBJ Export v2.3
#
####
o Octahedron.obj
g default
v 1 0 -0
v -1 0 -0
v 0 1 -0
v 0 -1 -0
v 0 0 -1
v 0 0 1
vn 0.57735 0.57735 -0.57735
vn 0.57735 0.57735 -0.57735
vn 0.57735 0.57735 -0.57735
vn 0.57735 0.57735 0.57735
vn 0.57735 0.57735 0.57735
vn 0.57735 0.57735 0.57735
vn 0.57735 -0.57735 -0.57735
vn 0.57735 -0.57735 -0.57735
vn 0.57735 -0.57735 -0.57735
vn 0.57735 -0.57735 0.57735
vn 0.57735 -0.57735 0.57735
vn 0.57735 -0.57735 0.57735
vn -0.57735 0.57735 -0.57735
vn -0.57735 0.57735 -0.57735
vn -0.57735 0.57735 -0.57735
vn -0.57735 0.57735 0.57735
vn -0.57735 0.57735 0.57735
vn -0.57735 0.57735 0.57735
vn -0.57735 -0.57735 -0.57735
vn -0.57735 -0.57735 -0.57735
vn -0.57735 -0.57735 -0.57735
vn -0.57735 -0.57735 0.57735
vn -0.57735 -0.57735 0.57735
vn -0.57735 -0.57735 0.57735
g Octahedron
usemtl Octahedron
s off
f 5//1 3//2 1//3
f 3//4 6//5 1//6
f 4//7 5//8 1//9
f 6//10 4//11 1//12
f 3//13 5//14 2//15
f 6//16 3//17 2//18
f 5//19 4//20 2//21
f 4//22 6//23 2//24
