####
#
#	OBJ File Generated by LightWave3D
#	LightWave3D OBJ Export v2.3
#
####
o wedge.obj
g default
v 0.5 0.5 -1.22465e-016
v 1 0.5 -2.44929e-016
v 1 0 -2.44929e-016
v 0.5 0 -1.22465e-016
v 0.490393 0.5 -0.0975452
v 0.980785 0.5 -0.19509
v 0.980785 0 -0.19509
v 0.490393 0 -0.0975452
v 0.46194 0.5 -0.191342
v 0.92388 0.5 -0.382683
v 0.92388 0 -0.382683
v 0.46194 0 -0.191342
v 0.415735 0.5 -0.277785
v 0.83147 0.5 -0.55557
v 0.83147 0 -0.55557
v 0.415735 0 -0.277785
v 0.353553 0.5 -0.353553
v 0.707107 0.5 -0.707107
v 0.707107 0 -0.707107
v 0.353553 0 -0.353553
v 0.277785 0.5 -0.415735
v 0.55557 0.5 -0.83147
v 0.55557 0 -0.83147
v 0.277785 0 -0.415735
v 0.191342 0.5 -0.46194
v 0.382683 0.5 -0.92388
v 0.382683 0 -0.92388
v 0.191342 0 -0.46194
v 0.0975452 0.5 -0.490393
v 0.19509 0.5 -0.980785
v 0.19509 0 -0.980785
v 0.0975452 0 -0.490393
v -9.18485e-017 0.5 -0.5
v -1.83697e-016 0.5 -1
v -1.83697e-016 0 -1
v -9.18485e-017 0 -0.5
v -0.0975452 0.5 -0.490393
v -0.19509 0.5 -0.980785
v -0.19509 0 -0.980785
v -0.0975452 0 -0.490393
v -0.191342 0.5 -0.46194
v -0.382683 0.5 -0.92388
v -0.382683 0 -0.92388
v -0.191342 0 -0.46194
v -0.277785 0.5 -0.415735
v -0.55557 0.5 -0.83147
v -0.55557 0 -0.83147
v -0.277785 0 -0.415735
v -0.353553 0.5 -0.353553
v -0.707107 0.5 -0.707107
v -0.707107 0 -0.707107
v -0.353553 0 -0.353553
v -0.415735 0.5 -0.277785
v -0.83147 0.5 -0.55557
v -0.83147 0 -0.55557
v -0.415735 0 -0.277785
v -0.46194 0.5 -0.191342
v -0.92388 0.5 -0.382683
v -0.92388 0 -0.382683
v -0.46194 0 -0.191342
v -0.490393 0.5 -0.0975452
v -0.980785 0.5 -0.19509
v -0.980785 0 -0.19509
v -0.490393 0 -0.0975452
v -0.5 0.5 6.12323e-017
v -1 0.5 1.22465e-016
v -1 0 1.22465e-016
v -0.5 0 6.12323e-017
v -0.490393 0.5 0.0975452
v -0.980785 0.5 0.19509
v -0.980785 0 0.19509
v -0.490393 0 0.0975452
v -0.46194 0.5 0.191342
v -0.92388 0.5 0.382683
v -0.92388 0 0.382683
v -0.46194 0 0.191342
v -0.415735 0.5 0.277785
v -0.83147 0.5 0.55557
v -0.83147 0 0.55557
v -0.415735 0 0.277785
v -0.353553 0.5 0.353553
v -0.707107 0.5 0.707107
v -0.707107 0 0.707107
v -0.353553 0 0.353553
v -0.277785 0.5 0.415735
v -0.55557 0.5 0.83147
v -0.55557 0 0.83147
v -0.277785 0 0.415735
v -0.191342 0.5 0.46194
v -0.382683 0.5 0.92388
v -0.382683 0 0.92388
v -0.191342 0 0.46194
v -0.0975452 0.5 0.490393
v -0.19509 0.5 0.980785
v -0.19509 0 0.980785
v -0.0975452 0 0.490393
v 3.06162e-017 0.5 0.5
v 6.12323e-017 0.5 1
v 6.12323e-017 0 1
v 3.06162e-017 0 0.5
v 0.0975452 0.5 0.490393
v 0.19509 0.5 0.980785
v 0.19509 0 0.980785
v 0.0975452 0 0.490393
v 0.191342 0.5 0.46194
v 0.382683 0.5 0.92388
v 0.382683 0 0.92388
v 0.191342 0 0.46194
v 0.277785 0.5 0.415735
v 0.55557 0.5 0.83147
v 0.55557 0 0.83147
v 0.277785 0 0.415735
v 0.353553 0.5 0.353553
v 0.707107 0.5 0.707107
v 0.707107 0 0.707107
v 0.353553 0 0.353553
v 0.415735 0.5 0.277785
v 0.83147 0.5 0.55557
v 0.83147 0 0.55557
v 0.415735 0 0.277785
v 0.46194 0.5 0.191342
v 0.92388 0.5 0.382683
v 0.92388 0 0.382683
v 0.46194 0 0.191342
v 0.490393 0.5 0.0975452
v 0.980785 0.5 0.19509
v 0.980785 0 0.19509
v 0.490393 0 0.0975452
vt 0.00349379 0.43192
vt 0.00349379 0.532366
vt 0.00349379 0.539063
vt 0.00349379 0.639509
vt 0.00351288 0.214286
vt 0.00756288 0.173166
vt 0.00756288 0.255405
vt 0.0195569 0.133627
vt 0.0195569 0.294945
vt 0.037187 0.43192
vt 0.037187 0.532366
vt 0.037187 0.539063
vt 0.037187 0.639509
vt 0.0390344 0.0971866
vt 0.0390344 0.331385
vt 0.0652468 0.0652468
vt 0.0652468 0.363325
vt 0.0756273 0.43192
vt 0.0756273 0.532366
vt 0.0756273 0.539063
vt 0.0756273 0.639509
vt 0.0971866 0.0390344
vt 0.0971866 0.389537
vt 0.108899 0.214286
vt 0.110924 0.193726
vt 0.110924 0.234846
vt 0.116921 0.173956
vt 0.116921 0.254615
vt 0.117337 0.43192
vt 0.117337 0.532366
vt 0.117337 0.539063
vt 0.117337 0.639509
vt 0.12666 0.155736
vt 0.12666 0.272835
vt 0.133627 0.0195569
vt 0.133627 0.409015
vt 0.139766 0.139766
vt 0.139766 0.288805
vt 0.155736 0.12666
vt 0.155736 0.301911
vt 0.160714 0.43192
vt 0.160714 0.532366
vt 0.160714 0.539063
vt 0.160714 0.639509
vt 0.173166 0.00756288
vt 0.173166 0.421009
vt 0.173956 0.116921
vt 0.173956 0.31165
vt 0.193726 0.110924
vt 0.193726 0.317647
vt 0.204091 0.43192
vt 0.204091 0.532366
vt 0.204091 0.539063
vt 0.204091 0.639509
vt 0.214286 0.00351288
vt 0.214286 0.108899
vt 0.214286 0.319672
vt 0.214286 0.425059
vt 0.234846 0.110924
vt 0.234846 0.317647
vt 0.245801 0.43192
vt 0.245801 0.532366
vt 0.245801 0.539063
vt 0.245801 0.639509
vt 0.254615 0.116921
vt 0.254615 0.31165
vt 0.255405 0.00756288
vt 0.255405 0.421009
vt 0.272835 0.12666
vt 0.272835 0.301911
vt 0.284242 0.43192
vt 0.284242 0.532366
vt 0.284242 0.539063
vt 0.284242 0.639509
vt 0.288805 0.139766
vt 0.288805 0.288805
vt 0.294945 0.0195569
vt 0.294945 0.409015
vt 0.301911 0.155736
vt 0.301911 0.272835
vt 0.31165 0.173956
vt 0.31165 0.254615
vt 0.317647 0.193726
vt 0.317647 0.234846
vt 0.317935 0.43192
vt 0.317935 0.532366
vt 0.317935 0.539063
vt 0.317935 0.639509
vt 0.319672 0.214286
vt 0.324922 0.43192
vt 0.324922 0.532366
vt 0.331385 0.0390344
vt 0.331385 0.389537
vt 0.358616 0.43192
vt 0.358616 0.532366
vt 0.363325 0.0652468
vt 0.363325 0.363325
vt 0.389537 0.0971866
vt 0.389537 0.331385
vt 0.397056 0.43192
vt 0.397056 0.532366
vt 0.409015 0.133627
vt 0.409015 0.294945
vt 0.421009 0.173166
vt 0.421009 0.255405
vt 0.425059 0.214286
vt 0.432084 0.214286
vt 0.436134 0.173166
vt 0.436134 0.255405
vt 0.438766 0.43192
vt 0.438766 0.532366
vt 0.448128 0.133627
vt 0.448128 0.294945
vt 0.467606 0.0971866
vt 0.467606 0.331385
vt 0.482143 0.43192
vt 0.482143 0.532366
vt 0.493818 0.0652468
vt 0.493818 0.363325
vt 0.52552 0.43192
vt 0.52552 0.532366
vt 0.525758 0.0390344
vt 0.525758 0.389537
vt 0.537471 0.214286
vt 0.539496 0.193726
vt 0.539496 0.234846
vt 0.545493 0.173956
vt 0.545493 0.254615
vt 0.555232 0.155736
vt 0.555232 0.272835
vt 0.562198 0.0195569
vt 0.562198 0.409015
vt 0.56723 0.43192
vt 0.56723 0.532366
vt 0.568338 0.139766
vt 0.568338 0.288805
vt 0.584308 0.12666
vt 0.584308 0.301911
vt 0.601737 0.00756288
vt 0.601737 0.421009
vt 0.602527 0.116921
vt 0.602527 0.31165
vt 0.60567 0.43192
vt 0.60567 0.532366
vt 0.622297 0.110924
vt 0.622297 0.317647
vt 0.639363 0.43192
vt 0.639363 0.532366
vt 0.642857 0.00351288
vt 0.642857 0.108899
vt 0.642857 0.319672
vt 0.642857 0.425059
vt 0.646351 0.43192
vt 0.646351 0.532366
vt 0.663417 0.110924
vt 0.663417 0.317647
vt 0.680044 0.43192
vt 0.680044 0.532366
vt 0.683187 0.116921
vt 0.683187 0.31165
vt 0.683977 0.00756288
vt 0.683977 0.421009
vt 0.701407 0.12666
vt 0.701407 0.301911
vt 0.717377 0.139766
vt 0.717377 0.288805
vt 0.718484 0.43192
vt 0.718484 0.532366
vt 0.723516 0.0195569
vt 0.723516 0.409015
vt 0.730483 0.155736
vt 0.730483 0.272835
vt 0.740222 0.173956
vt 0.740222 0.254615
vt 0.746219 0.193726
vt 0.746219 0.234846
vt 0.748244 0.214286
vt 0.759956 0.0390344
vt 0.759956 0.389537
vt 0.760194 0.43192
vt 0.760194 0.532366
vt 0.791896 0.0652468
vt 0.791896 0.363325
vt 0.803571 0.43192
vt 0.803571 0.532366
vt 0.818108 0.0971866
vt 0.818108 0.331385
vt 0.837586 0.133627
vt 0.837586 0.294945
vt 0.846948 0.43192
vt 0.846948 0.532366
vt 0.84958 0.173166
vt 0.84958 0.255405
vt 0.85363 0.214286
vt 0.860544 0.00334821
vt 0.860544 0.103795
vt 0.860544 0.110491
vt 0.860544 0.210938
vt 0.860544 0.217634
vt 0.860544 0.31808
vt 0.860544 0.324777
vt 0.860544 0.425223
vt 0.875123 0.00334821
vt 0.875123 0.103795
vt 0.875123 0.110491
vt 0.875123 0.210938
vt 0.875123 0.217634
vt 0.875123 0.31808
vt 0.875123 0.324777
vt 0.875123 0.425223
vt 0.888658 0.43192
vt 0.888658 0.532366
vt 0.891755 0.00334821
vt 0.891755 0.103795
vt 0.891755 0.110491
vt 0.891755 0.210938
vt 0.891755 0.217634
vt 0.891755 0.31808
vt 0.891755 0.324777
vt 0.891755 0.425223
vt 0.909803 0.00334821
vt 0.909803 0.103795
vt 0.909803 0.110491
vt 0.909803 0.210938
vt 0.909803 0.217634
vt 0.909803 0.31808
vt 0.909803 0.324777
vt 0.909803 0.425223
vt 0.927099 0.43192
vt 0.927099 0.532366
vt 0.928571 0.00334821
vt 0.928571 0.103795
vt 0.928571 0.110491
vt 0.928571 0.210938
vt 0.928571 0.217634
vt 0.928571 0.31808
vt 0.928571 0.324777
vt 0.928571 0.425223
vt 0.94734 0.00334821
vt 0.94734 0.103795
vt 0.94734 0.110491
vt 0.94734 0.210938
vt 0.94734 0.217634
vt 0.94734 0.31808
vt 0.94734 0.324777
vt 0.94734 0.425223
vt 0.960792 0.43192
vt 0.960792 0.532366
vt 0.965388 0.00334821
vt 0.965388 0.103795
vt 0.965388 0.110491
vt 0.965388 0.210938
vt 0.965388 0.217634
vt 0.965388 0.31808
vt 0.965388 0.324777
vt 0.965388 0.425223
vt 0.98202 0.00334821
vt 0.98202 0.103795
vt 0.98202 0.110491
vt 0.98202 0.210938
vt 0.98202 0.217634
vt 0.98202 0.31808
vt 0.98202 0.324777
vt 0.98202 0.425223
vt 0.996599 0.00334821
vt 0.996599 0.103795
vt 0.996599 0.110491
vt 0.996599 0.210938
vt 0.996599 0.217634
vt 0.996599 0.31808
vt 0.996599 0.324777
vt 0.996599 0.425223
vn -0.995185 0 0.0980173
vn -0.995185 0 0.0980173
vn -0.995185 0 0.0980173
vn -0.995185 0 0.0980173
vn 0 1 0
vn 0 1 0
vn 0 1 0
vn 0 1 0
vn 0.995185 -0 -0.0980173
vn 0.995185 -0 -0.0980173
vn 0.995185 -0 -0.0980173
vn 0.995185 -0 -0.0980173
vn 0 -1 -0
vn 0 -1 -0
vn 0 -1 -0
vn 0 -1 -0
vn -0.95694 0 0.290285
vn -0.95694 0 0.290285
vn -0.95694 0 0.290285
vn -0.95694 0 0.290285
vn 0 1 0
vn 0 1 0
vn 0 1 0
vn 0 1 0
vn 0.95694 -0 -0.290285
vn 0.95694 -0 -0.290285
vn 0.95694 -0 -0.290285
vn 0.95694 -0 -0.290285
vn 0 -1 -0
vn 0 -1 -0
vn 0 -1 -0
vn 0 -1 -0
vn -0.881921 0 0.471397
vn -0.881921 0 0.471397
vn -0.881921 0 0.471397
vn -0.881921 0 0.471397
vn 0 1 0
vn 0 1 0
vn 0 1 0
vn 0 1 0
vn 0.881921 -0 -0.471397
vn 0.881921 -0 -0.471397
vn 0.881921 -0 -0.471397
vn 0.881921 -0 -0.471397
vn 0 -1 -0
vn 0 -1 -0
vn 0 -1 -0
vn 0 -1 -0
vn -0.77301 0 0.634393
vn -0.77301 0 0.634393
vn -0.77301 0 0.634393
vn -0.77301 0 0.634393
vn 0 1 0
vn 0 1 0
vn 0 1 0
vn 0 1 0
vn 0.77301 -0 -0.634393
vn 0.77301 -0 -0.634393
vn 0.77301 -0 -0.634393
vn 0.77301 -0 -0.634393
vn 0 -1 -0
vn 0 -1 -0
vn 0 -1 -0
vn 0 -1 -0
vn -0.634393 0 0.77301
vn -0.634393 0 0.77301
vn -0.634393 0 0.77301
vn -0.634393 0 0.77301
vn 0 1 0
vn 0 1 0
vn 0 1 0
vn 0 1 0
vn 0.634393 -0 -0.77301
vn 0.634393 -0 -0.77301
vn 0.634393 -0 -0.77301
vn 0.634393 -0 -0.77301
vn 0 -1 -0
vn 0 -1 -0
vn 0 -1 -0
vn 0 -1 -0
vn -0.471397 0 0.881921
vn -0.471397 0 0.881921
vn -0.471397 0 0.881921
vn -0.471397 0 0.881921
vn 0 1 0
vn 0 1 0
vn 0 1 0
vn 0 1 0
vn 0.471397 -0 -0.881921
vn 0.471397 -0 -0.881921
vn 0.471397 -0 -0.881921
vn 0.471397 -0 -0.881921
vn 0 -1 -0
vn 0 -1 -0
vn 0 -1 -0
vn 0 -1 -0
vn -0.290285 0 0.95694
vn -0.290285 0 0.95694
vn -0.290285 0 0.95694
vn -0.290285 0 0.95694
vn 0 1 0
vn 0 1 0
vn 0 1 0
vn 0 1 0
vn 0.290285 -0 -0.95694
vn 0.290285 -0 -0.95694
vn 0.290285 -0 -0.95694
vn 0.290285 -0 -0.95694
vn 0 -1 -0
vn 0 -1 -0
vn 0 -1 -0
vn 0 -1 -0
vn -0.0980173 0 0.995185
vn -0.0980173 0 0.995185
vn -0.0980173 0 0.995185
vn -0.0980173 0 0.995185
vn 0 1 0
vn 0 1 0
vn 0 1 0
vn 0 1 0
vn 0.0980173 -0 -0.995185
vn 0.0980173 -0 -0.995185
vn 0.0980173 -0 -0.995185
vn 0.0980173 -0 -0.995185
vn 0 -1 -0
vn 0 -1 -0
vn 0 -1 -0
vn 0 -1 -0
vn 0.0980173 0 0.995185
vn 0.0980173 0 0.995185
vn 0.0980173 0 0.995185
vn 0.0980173 0 0.995185
vn 0 1 0
vn 0 1 0
vn 0 1 0
vn 0 1 0
vn -0.0980173 0 -0.995185
vn -0.0980173 0 -0.995185
vn -0.0980173 0 -0.995185
vn -0.0980173 0 -0.995185
vn 0 -1 -0
vn 0 -1 -0
vn 0 -1 -0
vn 0 -1 -0
vn 0.290285 0 0.95694
vn 0.290285 0 0.95694
vn 0.290285 0 0.95694
vn 0.290285 0 0.95694
vn 0 1 0
vn 0 1 0
vn 0 1 0
vn 0 1 0
vn -0.290285 0 -0.95694
vn -0.290285 0 -0.95694
vn -0.290285 0 -0.95694
vn -0.290285 0 -0.95694
vn 0 -1 -0
vn 0 -1 -0
vn 0 -1 -0
vn 0 -1 -0
vn 0.471397 0 0.881921
vn 0.471397 0 0.881921
vn 0.471397 0 0.881921
vn 0.471397 0 0.881921
vn 0 1 0
vn 0 1 0
vn 0 1 0
vn 0 1 0
vn -0.471397 0 -0.881921
vn -0.471397 0 -0.881921
vn -0.471397 0 -0.881921
vn -0.471397 0 -0.881921
vn 0 -1 -0
vn 0 -1 -0
vn 0 -1 -0
vn 0 -1 -0
vn 0.634393 0 0.77301
vn 0.634393 0 0.77301
vn 0.634393 0 0.77301
vn 0.634393 0 0.77301
vn 0 1 0
vn 0 1 0
vn 0 1 0
vn 0 1 0
vn -0.634393 0 -0.77301
vn -0.634393 0 -0.77301
vn -0.634393 0 -0.77301
vn -0.634393 0 -0.77301
vn 0 -1 -0
vn 0 -1 -0
vn 0 -1 -0
vn 0 -1 -0
vn 0.77301 0 0.634393
vn 0.77301 0 0.634393
vn 0.77301 0 0.634393
vn 0.77301 0 0.634393
vn 0 1 0
vn 0 1 0
vn 0 1 0
vn 0 1 0
vn -0.77301 0 -0.634393
vn -0.77301 0 -0.634393
vn -0.77301 0 -0.634393
vn -0.77301 0 -0.634393
vn 0 -1 -0
vn 0 -1 -0
vn 0 -1 -0
vn 0 -1 -0
vn 0.881921 0 0.471397
vn 0.881921 0 0.471397
vn 0.881921 0 0.471397
vn 0.881921 0 0.471397
vn 0 1 0
vn 0 1 0
vn 0 1 0
vn 0 1 0
vn -0.881921 0 -0.471397
vn -0.881921 0 -0.471397
vn -0.881921 0 -0.471397
vn -0.881921 0 -0.471397
vn 0 -1 -0
vn 0 -1 -0
vn 0 -1 -0
vn 0 -1 -0
vn 0.95694 0 0.290285
vn 0.95694 0 0.290285
vn 0.95694 0 0.290285
vn 0.95694 0 0.290285
vn 0 1 0
vn 0 1 0
vn 0 1 0
vn 0 1 0
vn -0.95694 0 -0.290285
vn -0.95694 0 -0.290285
vn -0.95694 0 -0.290285
vn -0.95694 0 -0.290285
vn 0 -1 -0
vn 0 -1 -0
vn 0 -1 -0
vn 0 -1 -0
vn 0.995185 0 0.0980173
vn 0.995185 0 0.0980173
vn 0.995185 0 0.0980173
vn 0.995185 0 0.0980173
vn 0 1 -0
vn 0 1 -0
vn 0 1 -0
vn 0 1 -0
vn -0.995185 0 -0.0980173
vn -0.995185 0 -0.0980173
vn -0.995185 0 -0.0980173
vn -0.995185 0 -0.0980173
vn 0 -1 -0
vn 0 -1 -0
vn 0 -1 -0
vn 0 -1 -0
vn 0.995185 -0 -0.0980173
vn 0.995185 -0 -0.0980173
vn 0.995185 -0 -0.0980173
vn 0.995185 -0 -0.0980173
vn 0 1 0
vn 0 1 0
vn 0 1 0
vn 0 1 0
vn -0.995185 0 0.0980173
vn -0.995185 0 0.0980173
vn -0.995185 0 0.0980173
vn -0.995185 0 0.0980173
vn 0 -1 -0
vn 0 -1 -0
vn 0 -1 -0
vn 0 -1 -0
vn 0.95694 -0 -0.290285
vn 0.95694 -0 -0.290285
vn 0.95694 -0 -0.290285
vn 0.95694 -0 -0.290285
vn 0 1 0
vn 0 1 0
vn 0 1 0
vn 0 1 0
vn -0.95694 0 0.290285
vn -0.95694 0 0.290285
vn -0.95694 0 0.290285
vn -0.95694 0 0.290285
vn 0 -1 -0
vn 0 -1 -0
vn 0 -1 -0
vn 0 -1 -0
vn 0.881921 -0 -0.471397
vn 0.881921 -0 -0.471397
vn 0.881921 -0 -0.471397
vn 0.881921 -0 -0.471397
vn 0 1 0
vn 0 1 0
vn 0 1 0
vn 0 1 0
vn -0.881921 0 0.471397
vn -0.881921 0 0.471397
vn -0.881921 0 0.471397
vn -0.881921 0 0.471397
vn 0 -1 -0
vn 0 -1 -0
vn 0 -1 -0
vn 0 -1 -0
vn 0.77301 -0 -0.634393
vn 0.77301 -0 -0.634393
vn 0.77301 -0 -0.634393
vn 0.77301 -0 -0.634393
vn 0 1 0
vn 0 1 0
vn 0 1 0
vn 0 1 0
vn -0.77301 0 0.634393
vn -0.77301 0 0.634393
vn -0.77301 0 0.634393
vn -0.77301 0 0.634393
vn 0 -1 -0
vn 0 -1 -0
vn 0 -1 -0
vn 0 -1 -0
vn 0.634393 -0 -0.77301
vn 0.634393 -0 -0.77301
vn 0.634393 -0 -0.77301
vn 0.634393 -0 -0.77301
vn 0 1 0
vn 0 1 0
vn 0 1 0
vn 0 1 0
vn -0.634393 0 0.77301
vn -0.634393 0 0.77301
vn -0.634393 0 0.77301
vn -0.634393 0 0.77301
vn 0 -1 -0
vn 0 -1 -0
vn 0 -1 -0
vn 0 -1 -0
vn 0.471397 -0 -0.881921
vn 0.471397 -0 -0.881921
vn 0.471397 -0 -0.881921
vn 0.471397 -0 -0.881921
vn 0 1 0
vn 0 1 0
vn 0 1 0
vn 0 1 0
vn -0.471397 0 0.881921
vn -0.471397 0 0.881921
vn -0.471397 0 0.881921
vn -0.471397 0 0.881921
vn 0 -1 -0
vn 0 -1 -0
vn 0 -1 -0
vn 0 -1 -0
vn 0.290285 -0 -0.95694
vn 0.290285 -0 -0.95694
vn 0.290285 -0 -0.95694
vn 0.290285 -0 -0.95694
vn 0 1 0
vn 0 1 0
vn 0 1 0
vn 0 1 0
vn -0.290285 0 0.95694
vn -0.290285 0 0.95694
vn -0.290285 0 0.95694
vn -0.290285 0 0.95694
vn 0 -1 -0
vn 0 -1 -0
vn 0 -1 -0
vn 0 -1 -0
vn 0.0980173 -0 -0.995185
vn 0.0980173 -0 -0.995185
vn 0.0980173 -0 -0.995185
vn 0.0980173 -0 -0.995185
vn 0 1 -0
vn 0 1 -0
vn 0 1 -0
vn 0 1 -0
vn -0.0980173 0 0.995185
vn -0.0980173 0 0.995185
vn -0.0980173 0 0.995185
vn -0.0980173 0 0.995185
vn 0 -1 -0
vn 0 -1 -0
vn 0 -1 -0
vn 0 -1 -0
vn -0.0980173 0 -0.995185
vn -0.0980173 0 -0.995185
vn -0.0980173 0 -0.995185
vn -0.0980173 0 -0.995185
vn 0 1 0
vn 0 1 0
vn 0 1 0
vn 0 1 0
vn 0.0980173 0 0.995185
vn 0.0980173 0 0.995185
vn 0.0980173 0 0.995185
vn 0.0980173 0 0.995185
vn 0 -1 -0
vn 0 -1 -0
vn 0 -1 -0
vn 0 -1 -0
vn -0.290285 0 -0.95694
vn -0.290285 0 -0.95694
vn -0.290285 0 -0.95694
vn -0.290285 0 -0.95694
vn 0 1 0
vn 0 1 0
vn 0 1 0
vn 0 1 0
vn 0.290285 0 0.95694
vn 0.290285 0 0.95694
vn 0.290285 0 0.95694
vn 0.290285 0 0.95694
vn 0 -1 -0
vn 0 -1 -0
vn 0 -1 -0
vn 0 -1 -0
vn -0.471397 0 -0.881921
vn -0.471397 0 -0.881921
vn -0.471397 0 -0.881921
vn -0.471397 0 -0.881921
vn 0 1 0
vn 0 1 0
vn 0 1 0
vn 0 1 0
vn 0.471397 0 0.881921
vn 0.471397 0 0.881921
vn 0.471397 0 0.881921
vn 0.471397 0 0.881921
vn 0 -1 -0
vn 0 -1 -0
vn 0 -1 -0
vn 0 -1 -0
vn -0.634393 0 -0.77301
vn -0.634393 0 -0.77301
vn -0.634393 0 -0.77301
vn -0.634393 0 -0.77301
vn 0 1 0
vn 0 1 0
vn 0 1 0
vn 0 1 0
vn 0.634393 0 0.77301
vn 0.634393 0 0.77301
vn 0.634393 0 0.77301
vn 0.634393 0 0.77301
vn 0 -1 -0
vn 0 -1 -0
vn 0 -1 -0
vn 0 -1 -0
vn -0.77301 0 -0.634393
vn -0.77301 0 -0.634393
vn -0.77301 0 -0.634393
vn -0.77301 0 -0.634393
vn 0 1 0
vn 0 1 0
vn 0 1 0
vn 0 1 0
vn 0.77301 0 0.634393
vn 0.77301 0 0.634393
vn 0.77301 0 0.634393
vn 0.77301 0 0.634393
vn 0 -1 -0
vn 0 -1 -0
vn 0 -1 -0
vn 0 -1 -0
vn -0.881921 0 -0.471397
vn -0.881921 0 -0.471397
vn -0.881921 0 -0.471397
vn -0.881921 0 -0.471397
vn 0 1 0
vn 0 1 0
vn 0 1 0
vn 0 1 0
vn 0.881921 0 0.471397
vn 0.881921 0 0.471397
vn 0.881921 0 0.471397
vn 0.881921 0 0.471397
vn 0 -1 -0
vn 0 -1 -0
vn 0 -1 -0
vn 0 -1 -0
vn -0.95694 0 -0.290285
vn -0.95694 0 -0.290285
vn -0.95694 0 -0.290285
vn -0.95694 0 -0.290285
vn 0 1 0
vn 0 1 0
vn 0 1 0
vn 0 1 0
vn 0.95694 0 0.290285
vn 0.95694 0 0.290285
vn 0.95694 0 0.290285
vn 0.95694 0 0.290285
vn 0 -1 -0
vn 0 -1 -0
vn 0 -1 -0
vn 0 -1 -0
vn -0.995185 0 -0.0980173
vn -0.995185 0 -0.0980173
vn -0.995185 0 -0.0980173
vn -0.995185 0 -0.0980173
vn 0 1 0
vn 0 1 0
vn 0 1 0
vn 0 1 0
vn 0.995185 0 0.0980173
vn 0.995185 0 0.0980173
vn 0.995185 0 0.0980173
vn 0.995185 0 0.0980173
vn 0 -1 -0
vn 0 -1 -0
vn 0 -1 -0
vn 0 -1 -0
g Stars_Mag(6)
usemtl Stars_Mag(6)
s off
f 1/232/1 5/240/2 8/239/3 4/231/4
f 2/106/5 6/105/6 5/84/7 1/89/8
f 7/51/9 6/52/10 2/42/11 3/41/12
f 8/176/13 7/193/14 3/194/15 4/177/16
f 5/240/17 9/250/18 12/249/19 8/239/20
f 6/105/21 10/103/22 9/82/23 5/84/24
f 11/61/25 10/62/26 6/52/27 7/51/28
f 12/174/29 11/189/30 7/193/31 8/176/32
f 9/250/33 13/258/34 16/257/35 12/249/36
f 10/103/37 14/99/38 13/80/39 9/82/40
f 15/71/41 14/72/42 10/62/43 11/61/44
f 16/172/45 15/187/46 11/189/47 12/174/48
f 13/258/49 17/266/50 20/265/51 16/257/52
f 14/99/53 18/97/54 17/76/55 13/80/56
f 19/85/57 18/86/58 14/72/59 15/71/60
f 20/166/61 19/183/62 15/187/63 16/172/64
f 17/268/65 21/260/66 24/259/67 20/267/68
f 18/97/69 22/93/70 21/70/71 17/76/72
f 23/229/73 22/230/74 18/248/75 19/247/76
f 24/164/77 23/179/78 19/183/79 20/166/80
f 21/260/81 25/252/82 28/251/83 24/259/84
f 22/93/85 26/78/86 25/66/87 21/70/88
f 27/211/89 26/212/90 22/230/91 23/229/92
f 28/160/93 27/170/94 23/179/95 24/164/96
f 25/252/97 29/242/98 32/241/99 28/251/100
f 26/78/101 30/68/102 29/60/103 25/66/104
f 31/190/105 30/191/106 26/212/107 27/211/108
f 32/156/109 31/162/110 27/170/111 28/160/112
f 29/242/113 33/234/114 36/233/115 32/241/116
f 30/68/117 34/58/118 33/57/119 29/60/120
f 35/184/121 34/185/122 30/191/123 31/190/124
f 36/151/125 35/152/126 31/162/127 32/156/128
f 36/233/129 33/234/130 37/224/131 40/223/132
f 33/57/133 34/58/134 38/46/135 37/50/136
f 38/181/137 34/185/138 35/184/139 39/180/140
f 39/140/141 35/152/142 36/151/143 40/146/144
f 40/223/145 37/224/146 41/216/147 44/215/148
f 37/50/149 38/46/150 42/36/151 41/48/152
f 42/168/153 38/181/154 39/180/155 43/167/156
f 43/132/157 39/140/158 40/146/159 44/142/160
f 44/215/161 41/216/162 45/206/163 48/205/164
f 41/48/165 42/36/166 46/23/167 45/40/168
f 46/158/169 42/168/170 43/167/171 47/157/172
f 47/123/173 43/132/174 44/142/175 48/138/176
f 48/205/177 45/206/178 49/198/179 52/197/180
f 45/40/181 46/23/182 50/17/183 49/38/184
f 50/154/185 46/158/186 47/157/187 51/153/188
f 51/119/189 47/123/190 48/138/191 52/136/192
f 52/269/193 49/270/194 53/262/195 56/261/196
f 49/38/197 50/17/198 54/15/199 53/34/200
f 54/144/201 50/148/202 51/147/203 55/143/204
f 55/115/205 51/119/206 52/136/207 56/130/208
f 56/261/209 53/262/210 57/254/211 60/253/212
f 53/34/213 54/15/214 58/9/215 57/28/216
f 58/134/217 54/144/218 55/143/219 59/133/220
f 59/113/221 55/115/222 56/130/223 60/128/224
f 60/253/225 57/254/226 61/244/227 64/243/228
f 57/28/229 58/9/230 62/7/231 61/26/232
f 62/121/233 58/134/234 59/133/235 63/120/236
f 63/109/237 59/113/238 60/128/239 64/126/240
f 64/243/241 61/244/242 65/236/243 68/235/244
f 65/24/245 61/26/246 62/7/247 66/5/248
f 66/117/249 62/121/250 63/120/251 67/116/252
f 63/109/253 64/126/254 68/124/255 67/107/256
f 68/235/257 65/236/258 69/226/259 72/225/260
f 69/25/261 65/24/262 66/5/263 70/6/264
f 70/111/265 66/117/266 67/116/267 71/110/268
f 67/107/269 68/124/270 72/125/271 71/108/272
f 72/225/273 69/226/274 73/218/275 76/217/276
f 73/27/277 69/25/278 70/6/279 74/8/280
f 74/101/281 70/111/282 71/110/283 75/100/284
f 71/108/285 72/125/286 76/127/287 75/112/288
f 76/217/289 73/218/290 77/208/291 80/207/292
f 77/33/293 73/27/294 74/8/295 78/14/296
f 78/95/297 74/101/298 75/100/299 79/94/300
f 75/112/301 76/127/302 80/129/303 79/114/304
f 80/207/305 77/208/306 81/200/307 84/199/308
f 81/37/309 77/33/310 78/14/311 82/16/312
f 82/91/313 78/95/314 79/94/315 83/90/316
f 79/114/317 80/129/318 84/135/319 83/118/320
f 84/201/321 81/202/322 85/210/323 88/209/324
f 85/39/325 81/37/326 82/16/327 86/22/328
f 86/13/329 82/4/330 83/3/331 87/12/332
f 83/118/333 84/135/334 88/137/335 87/122/336
f 88/209/337 85/210/338 89/220/339 92/219/340
f 89/47/341 85/39/342 86/22/343 90/35/344
f 90/21/345 86/13/346 87/12/347 91/20/348
f 87/122/349 88/137/350 92/141/351 91/131/352
f 92/219/353 89/220/354 93/228/355 96/227/356
f 93/49/357 89/47/358 90/35/359 94/45/360
f 94/32/361 90/21/362 91/20/363 95/31/364
f 91/131/365 92/141/366 96/145/367 95/139/368
f 96/227/369 93/228/370 97/238/371 100/237/372
f 97/56/373 93/49/374 94/45/375 98/55/376
f 98/44/377 94/32/378 95/31/379 99/43/380
f 95/139/381 96/145/382 100/150/383 99/149/384
f 97/238/385 101/246/386 104/245/387 100/237/388
f 102/67/389 101/59/390 97/56/391 98/55/392
f 103/53/393 102/54/394 98/44/395 99/43/396
f 100/150/397 104/155/398 103/161/399 99/149/400
f 101/246/401 105/256/402 108/255/403 104/245/404
f 106/77/405 105/65/406 101/59/407 102/67/408
f 107/63/409 106/64/410 102/54/411 103/53/412
f 104/155/413 108/159/414 107/169/415 103/161/416
f 105/256/417 109/264/418 112/263/419 108/255/420
f 110/92/421 109/69/422 105/65/423 106/77/424
f 111/73/425 110/74/426 106/64/427 107/63/428
f 108/159/429 112/163/430 111/178/431 107/169/432
f 109/264/433 113/272/434 116/271/435 112/263/436
f 114/96/437 113/75/438 109/69/439 110/92/440
f 115/87/441 114/88/442 110/74/443 111/73/444
f 112/163/445 116/165/446 115/182/447 111/178/448
f 113/196/449 117/204/450 120/203/451 116/195/452
f 118/98/453 117/79/454 113/75/455 114/96/456
f 119/10/457 118/11/458 114/2/459 115/1/460
f 116/165/461 120/171/462 119/186/463 115/182/464
f 117/204/465 121/214/466 124/213/467 120/203/468
f 122/102/469 121/81/470 117/79/471 118/98/472
f 123/18/473 122/19/474 118/11/475 119/10/476
f 120/171/477 124/173/478 123/188/479 119/186/480
f 121/214/481 125/222/482 128/221/483 124/213/484
f 126/104/485 125/83/486 121/81/487 122/102/488
f 127/29/489 126/30/490 122/19/491 123/18/492
f 124/173/493 128/175/494 127/192/495 123/188/496
f 125/222/497 1/232/498 4/231/499 128/221/500
f 2/106/501 1/89/502 125/83/503 126/104/504
f 3/41/505 2/42/506 126/30/507 127/29/508
f 128/175/509 4/177/510 3/194/511 127/192/512
