####
#
#	OBJ File Generated by LightWave3D
#	LightWave3D OBJ Export v2.3
#
####
o dodecahedron.obj
g default
v 0 0.206011 -0.539345
v 0 -0.206011 -0.539345
v 0 -0.206011 0.539345
v 0 0.206011 0.539345
v 0.539345 0 -0.206011
v -0.539345 0 -0.206011
v -0.539345 0 0.206011
v 0.539345 0 0.206011
v 0.206011 0.539345 -0
v -0.206011 0.539345 -0
v -0.206011 -0.539345 -0
v 0.206011 -0.539345 -0
v 0.333333 0.333333 -0.333333
v -0.333333 0.333333 -0.333333
v -0.333333 -0.333333 -0.333333
v 0.333333 -0.333333 -0.333333
v 0.333333 -0.333333 0.333333
v 0.333333 0.333333 0.333333
v -0.333333 0.333333 0.333333
v -0.333333 -0.333333 0.333333
vt -0.0580698 0.5
vt 0 0.11614
vt 0 0.88386
vt 0.0580698 0.5
vt 0.125 0.304087
vt 0.125 0.695913
vt 0.25 0.38386
vt 0.25 0.61614
vt 0.375 0.304087
vt 0.375 0.695913
vt 0.44193 0.5
vt 0.5 0.11614
vt 0.5 0.88386
vt 0.55807 0.5
vt 0.625 0.304087
vt 0.625 0.695913
vt 0.75 0.38386
vt 0.75 0.61614
vt 0.875 0.304087
vt 0.875 0.695913
vt 0.94193 0.5
vt 1 0.11614
vt 1 0.88386
vt 1.05807 0.5
vn 0.525731 4.61468e-008 -0.850651
vn 0.525731 4.61468e-008 -0.850651
vn 0.525731 4.61468e-008 -0.850651
vn 0.525731 -0 -0.850651
vn 0.525731 -0 -0.850651
vn 0.525731 -0 -0.850651
vn 0.525731 -4.61468e-008 -0.850651
vn 0.525731 -4.61468e-008 -0.850651
vn 0.525731 -4.61468e-008 -0.850651
vn -4.61468e-008 0.850651 -0.525731
vn -4.61468e-008 0.850651 -0.525731
vn -4.61468e-008 0.850651 -0.525731
vn 0 0.850651 -0.525731
vn 0 0.850651 -0.525731
vn 0 0.850651 -0.525731
vn 4.61468e-008 0.850651 -0.525731
vn 4.61468e-008 0.850651 -0.525731
vn 4.61468e-008 0.850651 -0.525731
vn -0.525731 -4.61468e-008 -0.850651
vn -0.525731 -4.61468e-008 -0.850651
vn -0.525731 -4.61468e-008 -0.850651
vn -0.525731 0 -0.850651
vn -0.525731 0 -0.850651
vn -0.525731 0 -0.850651
vn -0.525731 4.61468e-008 -0.850651
vn -0.525731 4.61468e-008 -0.850651
vn -0.525731 4.61468e-008 -0.850651
vn 4.61468e-008 -0.850651 -0.525731
vn 4.61468e-008 -0.850651 -0.525731
vn 4.61468e-008 -0.850651 -0.525731
vn 0 -0.850651 -0.525731
vn 0 -0.850651 -0.525731
vn 0 -0.850651 -0.525731
vn -4.61468e-008 -0.850651 -0.525731
vn -4.61468e-008 -0.850651 -0.525731
vn -4.61468e-008 -0.850651 -0.525731
vn 0.525731 -4.61468e-008 0.850651
vn 0.525731 -4.61468e-008 0.850651
vn 0.525731 -4.61468e-008 0.850651
vn 0.525731 0 0.850651
vn 0.525731 0 0.850651
vn 0.525731 0 0.850651
vn 0.525731 4.61468e-008 0.850651
vn 0.525731 4.61468e-008 0.850651
vn 0.525731 4.61468e-008 0.850651
vn -4.61468e-008 -0.850651 0.525731
vn -4.61468e-008 -0.850651 0.525731
vn -4.61468e-008 -0.850651 0.525731
vn -0 -0.850651 0.525731
vn -0 -0.850651 0.525731
vn -0 -0.850651 0.525731
vn 4.61468e-008 -0.850651 0.525731
vn 4.61468e-008 -0.850651 0.525731
vn 4.61468e-008 -0.850651 0.525731
vn -0.525731 4.61468e-008 0.850651
vn -0.525731 4.61468e-008 0.850651
vn -0.525731 4.61468e-008 0.850651
vn -0.525731 0 0.850651
vn -0.525731 0 0.850651
vn -0.525731 0 0.850651
vn -0.525731 -4.61468e-008 0.850651
vn -0.525731 -4.61468e-008 0.850651
vn -0.525731 -4.61468e-008 0.850651
vn 4.61468e-008 0.850651 0.525731
vn 4.61468e-008 0.850651 0.525731
vn 4.61468e-008 0.850651 0.525731
vn 0 0.850651 0.525731
vn 0 0.850651 0.525731
vn 0 0.850651 0.525731
vn -4.61468e-008 0.850651 0.525731
vn -4.61468e-008 0.850651 0.525731
vn -4.61468e-008 0.850651 0.525731
vn 0.850651 -0.525731 4.61468e-008
vn 0.850651 -0.525731 4.61468e-008
vn 0.850651 -0.525731 4.61468e-008
vn 0.850651 -0.525731 -0
vn 0.850651 -0.525731 -0
vn 0.850651 -0.525731 -0
vn 0.850651 -0.525731 -4.61468e-008
vn 0.850651 -0.525731 -4.61468e-008
vn 0.850651 -0.525731 -4.61468e-008
vn 0.850651 0.525731 -4.61468e-008
vn 0.850651 0.525731 -4.61468e-008
vn 0.850651 0.525731 -4.61468e-008
vn 0.850651 0.525731 0
vn 0.850651 0.525731 0
vn 0.850651 0.525731 0
vn 0.850651 0.525731 4.61468e-008
vn 0.850651 0.525731 4.61468e-008
vn 0.850651 0.525731 4.61468e-008
vn -0.850651 0.525731 4.61468e-008
vn -0.850651 0.525731 4.61468e-008
vn -0.850651 0.525731 4.61468e-008
vn -0.850651 0.525731 -0
vn -0.850651 0.525731 -0
vn -0.850651 0.525731 -0
vn -0.850651 0.525731 -4.61468e-008
vn -0.850651 0.525731 -4.61468e-008
vn -0.850651 0.525731 -4.61468e-008
vn -0.850651 -0.525731 -4.61468e-008
vn -0.850651 -0.525731 -4.61468e-008
vn -0.850651 -0.525731 -4.61468e-008
vn -0.850651 -0.525731 -0
vn -0.850651 -0.525731 -0
vn -0.850651 -0.525731 -0
vn -0.850651 -0.525731 4.61468e-008
vn -0.850651 -0.525731 4.61468e-008
vn -0.850651 -0.525731 4.61468e-008
g Dodecahedron
usemtl Dodecahedron
s off
f 2/17/1 5/14/2 16/15/3
f 1/18/4 5/14/5 2/17/6
f 1/18/7 13/16/8 5/14/9
f 9/13/10 13/16/11 1/18/12
f 10/23/13 9/13/14 1/18/15
f 14/20/16 10/23/17 1/18/18
f 14/20/19 1/18/20 6/21/21
f 6/21/22 1/18/23 2/17/24
f 6/21/25 2/17/26 15/19/27
f 15/19/28 2/17/29 11/22/30
f 2/17/31 12/12/32 11/22/33
f 2/17/34 16/15/35 12/12/36
f 18/10/37 4/8/38 8/11/39
f 8/11/40 4/8/41 3/7/42
f 8/11/43 3/7/44 17/9/45
f 17/9/46 3/7/47 12/12/48
f 3/7/49 11/22/50 12/12/51
f 3/7/52 20/5/53 11/2/54
f 3/7/55 7/4/56 20/5/57
f 4/8/58 7/4/59 3/7/60
f 4/8/61 19/6/62 7/4/63
f 10/3/64 19/6/65 4/8/66
f 9/13/67 10/23/68 4/8/69
f 18/10/70 9/13/71 4/8/72
f 16/15/73 5/14/74 12/12/75
f 5/14/76 8/11/77 12/12/78
f 8/11/79 17/9/80 12/12/81
f 9/13/82 18/10/83 8/11/84
f 5/14/85 9/13/86 8/11/87
f 13/16/88 9/13/89 5/14/90
f 10/23/91 14/20/92 6/21/93
f 10/3/94 6/1/95 7/4/96
f 19/6/97 10/3/98 7/4/99
f 20/5/100 7/4/101 11/2/102
f 7/24/103 6/21/104 11/22/105
f 6/21/106 15/19/107 11/22/108
