####
#
#	OBJ File Generated by LightWave3D
#	LightWave3D OBJ Export v2.3
#
####
o octahedron.obj
g default
v 1 0 -0
v -1 0 -0
v 0 1 -0
v 0 -1 -0
v 0 0 -1
v 0 0 1
vt 0 0.5
vt 0.125 0
vt 0.125 1
vt 0.25 0.5
vt 0.375 0
vt 0.375 1
vt 0.5 0.5
vt 0.625 0
vt 0.625 1
vt 0.75 0.5
vt 0.875 0
vt 0.875 1
vt 1 0.5
vn 0.57735 0.57735 -0.57735
vn 0.57735 0.57735 -0.57735
vn 0.57735 0.57735 -0.57735
vn 0.57735 0.57735 0.57735
vn 0.57735 0.57735 0.57735
vn 0.57735 0.57735 0.57735
vn 0.57735 -0.57735 -0.57735
vn 0.57735 -0.57735 -0.57735
vn 0.57735 -0.57735 -0.57735
vn 0.57735 -0.57735 0.57735
vn 0.57735 -0.57735 0.57735
vn 0.57735 -0.57735 0.57735
vn -0.57735 0.57735 -0.57735
vn -0.57735 0.57735 -0.57735
vn -0.57735 0.57735 -0.57735
vn -0.57735 0.57735 0.57735
vn -0.57735 0.57735 0.57735
vn -0.57735 0.57735 0.57735
vn -0.57735 -0.57735 -0.57735
vn -0.57735 -0.57735 -0.57735
vn -0.57735 -0.57735 -0.57735
vn -0.57735 -0.57735 0.57735
vn -0.57735 -0.57735 0.57735
vn -0.57735 -0.57735 0.57735
g Octahedron
usemtl Octahedron
s off
f 5/7/1 3/10/2 1/9/3
f 3/10/4 6/13/5 1/12/6
f 4/4/7 5/7/8 1/6/9
f 6/1/10 4/4/11 1/3/12
f 3/10/13 5/7/14 2/8/15
f 6/13/16 3/10/17 2/11/18
f 5/7/19 4/4/20 2/5/21
f 4/4/22 6/1/23 2/2/24
